# This file uses centimeters as units for non-parametric coordinates.

mtllib Slime2Obj.mtl
g default
v 14.484834 54.582432 11.813249
v 12.390811 54.582432 14.875163
v 14.484833 54.582432 15.597983
v 15.779010 54.582432 13.705616
v 14.842536 56.275017 10.643702
v 11.454334 56.275017 15.597983
v 14.842536 56.275017 16.767530
v 16.936559 56.275017 13.705616
v 14.842536 58.367165 10.643702
v 11.454334 58.367165 15.597983
v 14.842536 58.367165 16.767530
v 16.936559 58.367165 13.705616
v 14.484834 60.059750 11.813249
v 12.390811 60.059750 14.875163
v 14.484833 60.059750 15.597983
v 15.779010 60.059750 13.705616
v 13.906060 53.935921 13.705616
v 18.940712 29.589357 12.196698
v 18.293985 45.015610 17.984737
v 20.706995 45.015610 -17.775263
v 20.835292 33.710964 -19.457556
v 7.673235 12.404956 -4.687509
v 7.673235 12.404956 5.422231
v 13.348001 55.667080 14.831033
v 18.405464 53.552986 -12.198072
v 13.171261 68.396957 12.353137
v 13.171261 68.396957 -13.614165
v 7.745556 72.927994 5.788766
v 7.745556 72.927994 -7.049794
v 8.836923 58.838043 -32.404869
v 4.850731 66.506462 -25.356594
v 2.848825 73.604187 -22.993427
v 3.863802 67.808983 -42.573952
v 8.242712 71.635925 -36.824409
v 2.848825 77.287628 -31.186436
v 0.874754 75.663940 -42.555901
v 1.878630 78.299477 -41.711346
v 0.642068 81.369736 -41.148407
v 2.942150 7.064963 -4.153521
v 4.354262 3.150654 4.883971
v 3.335023 5.443860 -7.258831
v 3.188634 -1.617386 -3.810123
v 2.437339 7.206721 -10.220381
v 2.437339 4.915414 -12.500727
v 0.927851 5.486033 -19.829147
v 10.864465 40.105350 36.444241
v 10.764055 47.500809 41.106384
v 16.199861 36.580570 16.359879
v 12.360158 40.074524 20.913506
v 7.338590 37.641182 27.989094
v 8.277042 57.359192 23.055140
v 4.659815 70.004692 13.831864
v 2.736468 74.743317 7.041792
v 3.803738 52.806362 37.778889
v -0.496447 27.338762 17.596657
v -0.496447 45.015610 -26.596439
v -0.496447 33.710964 -24.008003
v -0.496447 12.404956 -6.683262
v -0.496447 12.404956 8.222141
v -0.496447 53.552986 -24.549278
v -0.496447 72.927994 5.788766
v -0.496447 72.927994 -7.049794
v -0.496447 58.838043 -32.404869
v -0.496447 73.604187 -22.993427
v -0.496447 67.808983 -42.573952
v -0.496447 77.287628 -31.186436
v -0.496447 75.663940 -42.555901
v -0.496447 81.369743 -41.148411
v -0.496447 8.141111 -6.145003
v -0.496447 3.150654 4.883971
v -0.496447 5.896674 -7.258831
v -0.496447 -1.617386 -3.810123
v -0.496447 8.438432 -10.220381
v -0.496447 4.490118 -12.856489
v -0.496447 5.425003 -19.943253
v -0.496447 36.776520 36.444241
v -0.496447 47.500809 41.106384
v -0.496447 34.744114 20.174267
v -0.496447 40.074524 20.913506
v -0.496447 37.641182 27.989094
v -0.496447 57.359192 24.100256
v -0.496447 70.004692 13.831864
v -0.496447 74.743317 7.041792
v -0.496447 52.806362 37.778889
v -19.933606 29.589357 12.196698
v -19.286879 45.015610 17.984737
v -21.699889 45.015610 -17.775263
v -21.828186 33.710964 -19.457556
v -8.666130 12.404956 -4.687509
v -8.666130 12.404956 5.422231
v -14.340895 55.667080 14.831033
v -19.398358 53.552986 -12.198072
v -14.164155 68.396957 12.353137
v -14.164155 68.396957 -13.614165
v -8.738450 72.927994 5.788766
v -8.738450 72.927994 -7.049794
v -9.829817 58.838043 -32.404869
v -5.843625 66.506462 -25.356594
v -3.841719 73.604187 -22.993427
v -4.856696 67.808983 -42.573952
v -9.235606 71.635925 -36.824409
v -3.841719 77.287628 -31.186436
v -1.867648 75.663940 -42.555901
v -2.871524 78.299477 -41.711346
v -1.634962 81.369736 -41.148407
v -3.935044 7.064963 -4.153521
v -5.347156 3.150654 4.883971
v -4.327918 5.443860 -7.258831
v -4.181529 -1.617386 -3.810123
v -3.430233 7.206721 -10.220381
v -3.430233 4.915414 -12.500727
v -1.920745 5.486033 -19.829147
v -11.857359 40.105350 36.444241
v -11.756949 47.500809 41.106384
v -17.192755 36.580570 16.359879
v -13.353053 40.074524 20.913506
v -8.331484 37.641182 27.989094
v -9.269936 57.359192 23.055140
v -5.652709 70.004692 13.831864
v -3.729362 74.743317 7.041792
v -4.834977 52.837284 37.866367
v -18.498595 65.378998 16.471302
v -21.012457 55.064213 8.392612
v -20.395983 45.015610 9.281020
v 17.505701 65.378998 16.471302
v 20.019563 55.064213 8.392612
v 19.403089 45.015610 9.281020
v -13.632206 61.151932 21.446213
v 12.639312 61.151932 21.446213
v 19.715555 50.108818 8.830724
v 16.045175 49.678303 16.660378
v 14.201795 42.428772 38.842564
v -0.496447 41.318012 38.346794
v -15.194689 42.428772 38.842564
v -17.038069 49.678303 16.660378
v -20.708449 50.108818 8.830724
v -0.496447 79.891815 -47.371532
v -0.496447 79.891815 -47.371532
v -8.738450 72.927994 -0.730834
v -14.164155 68.396957 -0.563830
v -23.176716 55.816013 -0.633356
v -27.878235 45.015610 -3.011888
v -28.723296 33.423050 -4.691543
v -8.666130 12.404956 -1.819093
v -8.666130 5.461685 -0.223436
v -5.975488 1.933969 -5.440079
v -5.298434 5.469705 -11.401087
v 7.745556 72.927994 -0.730834
v 13.171261 68.396957 -0.563830
v 22.183822 55.816013 -0.633356
v 26.885341 45.015610 -3.011888
v 27.730402 33.423050 -4.691543
v 7.673235 12.404956 -1.819093
v 7.673235 5.461685 -0.223436
v 4.982594 1.933969 -5.440079
v 4.305540 5.469705 -11.401087
v 15.492797 21.932961 -13.821122
v 16.906652 22.080740 -3.141440
v 10.709636 20.448820 4.973143
v -0.496447 20.060534 9.332221
v -11.702530 20.448820 4.973143
v -17.899546 22.080740 -3.141440
v -16.485691 21.932961 -13.821122
v -0.496447 21.351135 -16.670656
v -14.519951 54.582432 11.813249
v -16.613976 54.582432 12.536069
v -16.613976 54.582432 14.875163
v -14.519952 54.582432 15.597983
v -13.225774 54.582432 13.705616
v -14.162250 56.275017 10.643702
v -17.550452 56.275017 11.813249
v -17.550452 56.275017 15.597983
v -14.162250 56.275017 16.767530
v -12.068226 56.275017 13.705616
v -17.550452 58.367165 11.813249
v -17.550452 58.367165 15.597983
v -14.162250 58.367165 16.767530
v -12.068226 58.367165 13.705616
v -16.613976 60.059750 12.536069
v -16.613976 60.059750 14.875163
v -14.519952 60.059750 15.597983
v -15.098726 53.935921 13.705616
vt 0.170381 0.699344
vt 0.087072 0.720374
vt 0.130232 0.721033
vt 0.015859 0.737849
vt 0.077284 0.758081
vt 0.139996 0.757622
vt 0.006847 0.789223
vt 0.076126 0.797306
vt 0.143110 0.798073
vt 0.110670 0.685875
vt 0.685321 0.286777
vt 0.655945 0.247691
vt 0.700027 0.204858
vt 0.733603 0.238928
vt 0.654432 0.169120
vt 0.615215 0.195653
vt 0.585791 0.142110
vt 0.598254 0.135488
vt 0.569357 0.200284
vt 0.507107 0.209416
vt 0.507778 0.171483
vt 0.552888 0.164517
vt 0.711959 0.328793
vt 0.632501 0.637121
vt 0.211558 0.146335
vt 0.180207 0.177376
vt 0.560045 0.610701
vt 0.559860 0.648396
vt 0.533425 0.612893
vt 0.533401 0.636419
vt 0.671005 0.767642
vt 0.629409 0.740307
vt 0.552901 0.716541
vt 0.517886 0.709837
vt 0.630461 0.825395
vt 0.611481 0.818798
vt 0.570704 0.805104
vt 0.520483 0.775011
vt 0.577932 0.876539
vt 0.570803 0.866346
vt 0.555639 0.850363
vt 0.507215 0.834806
vt 0.559516 0.122182
vt 0.582085 0.104694
vt 0.509191 0.124361
vt 0.531676 0.127491
vt 0.552878 0.091501
vt 0.576454 0.087233
vt 0.511114 0.076896
vt 0.537556 0.084154
vt 0.568773 0.068073
vt 0.578364 0.072428
vt 0.512109 0.042117
vt 0.554372 0.052465
vt 0.555076 0.019086
vt 0.514816 0.007719
vt 0.596897 0.305002
vt 0.588762 0.501146
vt 0.562047 0.405149
vt 0.544290 0.388451
vt 0.539279 0.497456
vt 0.503659 0.494477
vt 0.504309 0.440327
vt 0.518809 0.440951
vt 0.589380 0.269329
vt 0.553428 0.332341
vt 0.581313 0.306864
vt 0.531870 0.357928
vt 0.504926 0.384931
vt 0.505253 0.356513
vt 0.555803 0.514467
vt 0.522865 0.555259
vt 0.555955 0.560097
vt 0.532485 0.588419
vt 0.513619 0.583257
vt 0.502522 0.591456
vt 0.502616 0.583412
vt 0.544370 0.420815
vt 0.569201 0.519350
vt 0.507079 0.323638
vt 0.506881 0.294156
vt 0.501987 0.636945
vt 0.261258 0.114105
vt 0.335473 0.093757
vt 0.504822 0.394441
vt 0.502959 0.554286
vt 0.501360 0.709573
vt 0.501007 0.774555
vt 0.500880 0.834794
vt 0.420478 0.084994
vt 0.403953 0.091423
vt 0.433279 0.078227
vt 0.427843 0.062210
vt 0.506658 0.258910
vt 0.504597 0.415225
vt 0.422590 0.268391
vt 0.409719 0.304058
vt 0.369890 0.327811
vt 0.320903 0.283662
vt 0.353179 0.244090
vt 0.445242 0.198208
vt 0.397840 0.191472
vt 0.430765 0.136816
vt 0.463476 0.161973
vt 0.383025 0.367694
vt 0.349970 0.342868
vt 0.272500 0.231728
vt 0.247047 0.271775
vt 0.358434 0.390164
vt 0.316009 0.417079
vt 0.329872 0.356332
vt 0.449839 0.558855
vt 0.472638 0.587717
vt 0.471121 0.612162
vt 0.444560 0.609345
vt 0.373836 0.739737
vt 0.443516 0.647484
vt 0.449529 0.715838
vt 0.470592 0.635682
vt 0.484776 0.709583
vt 0.649634 0.840108
vt 0.429773 0.795656
vt 0.481637 0.774818
vt 0.592203 0.885484
vt 0.475872 0.837219
vt 0.494546 0.834756
vt 0.459011 0.117108
vt 0.487220 0.124878
vt 0.466923 0.085181
vt 0.483838 0.079958
vt 0.451216 0.060005
vt 0.467912 0.046745
vt 0.470128 0.013242
vt 0.465492 0.387546
vt 0.447346 0.403829
vt 0.467974 0.496634
vt 0.489689 0.440431
vt 0.429465 0.305072
vt 0.456661 0.331396
vt 0.478610 0.357316
vt 0.451058 0.513248
vt 0.483035 0.554794
vt 0.491620 0.582999
vt 0.464645 0.419900
vt 0.308951 0.197565
vt 0.358013 0.162158
vt 0.436183 0.097923
vt 0.418033 0.129388
vt 0.449003 0.079935
vt 0.441044 0.064112
vt 0.291364 0.326405
vt 0.673980 0.355962
vt 0.573222 0.541244
vt 0.636777 0.327155
vt 0.655263 0.342317
vt 0.502855 0.890173
vt 0.501524 0.891230
vt 0.035461 0.915010
vt 0.092544 0.897354
vt 0.089947 0.926565
vt 0.129304 0.890293
vt 0.139340 0.923404
vt 0.030984 0.953026
vt 0.090042 0.957802
vt 0.591060 0.071163
vt 0.581661 0.026628
vt 0.413574 0.324311
vt 0.597647 0.326426
vt 0.618523 0.607398
vt 0.386176 0.604668
vt 0.369763 0.629462
vt 0.418419 0.499188
vt 0.622695 0.364813
vt 0.437557 0.517835
vt 0.645370 0.387245
vt 0.650307 0.425787
vt 0.684936 0.414608
vt 0.351684 0.430181
vt 0.433019 0.539602
vt 0.623363 0.425656
vt 0.613874 0.572007
vt 0.379808 0.431161
vt 0.391656 0.569397
vt 0.589620 0.898947
vt 0.666072 0.878982
vt 0.390299 0.822425
vt 0.711808 0.795503
vt 0.678595 0.104534
vt 0.613168 0.099700
vt 0.756434 0.278210
vt 0.439274 0.016110
vt 0.585306 0.086259
vt 0.597602 0.092922
vt 0.795152 0.159544
vt 0.823968 0.190433
vt 0.748827 0.126821
vt 0.819005 0.737452
vt 0.699473 0.725897
vt 0.093292 0.867965
vt 0.057600 0.886344
vt 0.146071 0.957187
vt 0.128264 0.991132
vt 0.045833 0.987619
vt 0.190618 0.899079
vt 0.203518 0.931276
vt 0.165473 0.874600
vt 0.037709 0.856826
vt 0.004277 0.863973
vt 0.088081 0.986463
vt 0.052791 0.699507
vt 0.026404 0.833641
vt 0.212478 0.787914
vt 0.193494 0.834621
vt 0.205966 0.738470
vt 0.139445 0.833811
vt 0.078761 0.837038
vn -0.264464 -0.585714 0.766158
vn 0.247167 -0.660323 0.709141
vn 0.314978 -0.234989 0.919548
vn -0.319944 -0.196276 0.926883
vn 0.764476 -0.644652 0.000001
vn 0.973745 -0.227640 0.000001
vn 0.681207 -0.564731 -0.465872
vn 0.811246 -0.184579 -0.554806
vn 0.314978 0.234989 0.919548
vn -0.319944 0.196275 0.926883
vn 0.973745 0.227640 0.000000
vn 0.811246 0.184579 -0.554806
vn 0.267925 0.585373 0.765216
vn -0.281735 0.504435 0.816193
vn 0.825429 0.564506 0.000000
vn 0.718807 0.491588 -0.491588
vn 0.186575 -0.975071 0.120109
vn 0.984808 0.158962 0.069884
vn 0.968849 -0.243008 0.047729
vn 0.570108 -0.287110 -0.769770
vn 0.626261 0.211640 -0.750337
vn 0.442521 -0.646898 -0.621046
vn 0.738830 -0.672041 0.049908
vn 0.845302 -0.532856 0.039105
vn 0.429193 -0.741937 -0.515096
vn 0.540386 -0.667926 0.511721
vn -0.000000 -0.620215 0.784432
vn -0.000000 -0.167611 0.985853
vn 0.639531 -0.302280 0.706842
vn 0.905553 0.422852 -0.034219
vn 0.785267 0.369772 -0.496613
vn -0.000000 0.189118 -0.981954
vn -0.000000 -0.400314 -0.916378
vn 0.821295 0.566546 -0.067080
vn 0.796498 0.522949 -0.303504
vn 0.267318 0.963608 0.000000
vn 0.352087 0.933030 -0.074096
vn -0.000000 -0.868339 -0.495972
vn 0.714024 -0.440228 -0.544398
vn 0.870142 0.427112 -0.245824
vn 0.553333 0.832959 0.001434
vn 0.000000 -0.638181 -0.769887
vn 0.587829 -0.415932 -0.693871
vn 0.970997 0.231708 -0.058964
vn 0.738606 0.614781 0.276596
vn 0.000000 0.002298 -0.999997
vn 0.509030 0.142608 -0.848853
vn 0.820359 0.515130 -0.248298
vn 0.603479 0.792917 0.084237
vn 0.950837 -0.309114 0.018885
vn 0.612384 0.008482 -0.790515
vn 0.000000 -0.542487 0.840064
vn 0.499339 -0.512284 0.698732
vn 0.897293 -0.383445 -0.218714
vn 0.733147 0.666042 -0.137420
vn 0.000000 -0.999953 -0.009738
vn 0.389829 -0.920750 0.015910
vn 0.932740 -0.029513 -0.359339
vn 0.454173 0.888091 0.070859
vn 0.000000 -0.894740 -0.446587
vn 0.259357 -0.852276 -0.454268
vn 0.673555 0.445981 -0.589428
vn -0.000000 0.582229 -0.813025
vn 0.922593 -0.122523 0.365802
vn 0.902828 0.328756 0.277168
vn 0.860371 0.136132 0.491152
vn 0.572104 -0.724231 0.384950
vn 0.329919 0.755484 0.566037
vn 0.001139 0.817213 0.576335
vn 0.002495 0.856289 0.516491
vn 0.155666 0.845566 0.510673
vn 0.730440 -0.398647 0.554561
vn 0.449934 -0.799085 0.398777
vn 0.337898 -0.363236 0.868265
vn 0.288533 -0.955033 -0.068263
vn 0.000000 -0.935359 0.353701
vn 0.000000 -0.991352 -0.131233
vn 0.346927 0.395031 0.850642
vn 0.119326 0.733489 0.669146
vn 0.699720 0.688790 0.189631
vn 0.329297 0.937255 0.114527
vn 0.164205 0.945382 0.281585
vn 0.000000 0.995779 -0.091779
vn 0.000000 0.966578 0.256373
vn 0.625514 0.316798 0.713002
vn 0.862771 0.238571 0.445768
vn 0.000000 -0.933353 0.358960
vn -0.000000 -0.409451 0.912332
vn 0.000000 0.999805 0.019764
vn -0.000000 -0.276706 -0.960955
vn 0.000000 -0.600711 -0.799467
vn -0.000000 -0.470167 0.882577
vn 0.000000 0.669532 0.742783
vn 0.000000 0.990934 0.134352
vn -0.000000 0.918100 0.396350
vn -0.000000 0.952104 0.305774
vn -0.000000 -0.040044 -0.999198
vn 0.000000 -0.695748 -0.718286
vn 0.000000 0.999987 -0.005181
vn -0.000000 0.999774 0.021241
vn -0.000000 -0.599991 0.800007
vn 0.001226 -0.063571 0.997977
vn -0.730440 -0.398647 0.554561
vn -0.922593 -0.122523 0.365802
vn -0.912968 0.061467 0.403374
vn -0.984808 0.158962 0.069885
vn -0.968849 -0.243008 0.047729
vn -0.540386 -0.667926 0.511721
vn -0.738830 -0.672041 0.049908
vn -0.845302 -0.532856 0.039105
vn -0.639531 -0.302280 0.706842
vn -0.902828 0.328756 0.277167
vn -0.888094 0.180293 0.422827
vn -0.626261 0.211640 -0.750337
vn -0.785267 0.369772 -0.496613
vn -0.862771 0.238571 0.445768
vn -0.786445 0.558024 0.264789
vn -0.904609 0.366734 0.217229
vn -0.699720 0.688790 0.189631
vn -0.329297 0.937255 0.114527
vn -0.267318 0.963608 0.000000
vn -0.821295 0.566546 -0.067080
vn -0.714024 -0.440228 -0.544398
vn -0.796498 0.522949 -0.303504
vn -0.870142 0.427112 -0.245824
vn -0.352087 0.933030 -0.074096
vn -0.553333 0.832959 0.001434
vn -0.587829 -0.415932 -0.693871
vn -0.970997 0.231708 -0.058964
vn -0.738606 0.614781 0.276596
vn -0.509030 0.142608 -0.848853
vn -0.820360 0.515130 -0.248297
vn -0.603479 0.792917 0.084238
vn -0.950837 -0.309114 0.018885
vn -0.499339 -0.512284 0.698732
vn -0.897293 -0.383445 -0.218714
vn -0.389829 -0.920750 0.015910
vn -0.932740 -0.029513 -0.359339
vn -0.259357 -0.852276 -0.454268
vn -0.673555 0.445981 -0.589428
vn -0.572104 -0.724231 0.384950
vn -0.860371 0.136132 0.491152
vn -0.329072 0.756490 0.565185
vn -0.155725 0.844512 0.512396
vn -0.337898 -0.363236 0.868265
vn -0.449934 -0.799085 0.398777
vn -0.288533 -0.955033 -0.068263
vn -0.346927 0.395031 0.850642
vn -0.119326 0.733488 0.669146
vn -0.164205 0.945382 0.281585
vn -0.626260 0.315989 0.712706
vn -0.570108 -0.287110 -0.769770
vn -0.442521 -0.646898 -0.621046
vn -0.612384 0.008482 -0.790515
vn -0.429193 -0.741937 -0.515096
vn -0.733147 0.666042 -0.137420
vn -0.454173 0.888091 0.070859
vn -0.905553 0.422852 -0.034219
vn 0.904609 0.366734 0.217229
vn 0.786445 0.558024 0.264789
vn 0.912968 0.061467 0.403374
vn 0.888095 0.180293 0.422827
vn 0.000000 -0.751477 -0.659759
vn 0.000000 -0.751477 -0.659759
vn 0.000000 -0.751477 -0.659759
vn 0.882303 -0.199451 -0.426333
vn 0.882303 -0.199451 -0.426333
vn 0.000000 -0.000000 -0.000000
vn 0.000000 -0.000000 -0.000000
vn 0.000000 0.972939 -0.231062
vn 0.879452 0.401173 -0.256171
vn -0.882303 -0.199451 -0.426333
vn -0.882303 -0.199451 -0.426333
vn -0.000000 -0.000000 -0.000000
vn -0.000000 -0.000000 -0.000000
vn 0.000000 -0.751477 -0.659759
vn -0.879453 0.401173 -0.256170
vn -0.281735 -0.504435 -0.816193
vn -0.666160 -0.612725 -0.425205
vn -0.914941 -0.311867 -0.256167
vn -0.281735 -0.504435 -0.816193
vn -0.629064 -0.650339 0.425838
vn -0.801190 -0.230377 0.552287
vn 0.237195 -0.627368 0.741719
vn 0.314978 -0.234989 0.919548
vn 0.718807 -0.491587 0.491589
vn 0.810477 -0.189471 0.554281
vn -0.801190 0.230377 0.552287
vn -0.983178 0.182651 0.000000
vn 0.175550 0.143798 0.973912
vn 0.825429 0.000000 0.564506
vn -0.680259 0.572068 0.458243
vn -0.875001 0.484122 0.000000
vn -0.281735 0.504434 0.816193
vn -0.270008 -0.947060 0.173702
s 1
g pSphere3
usemtl initialShadingGroup
f 2/210/1 3/2/2 7/5/3 6/4/4
f 3/2/2 4/3/5 8/6/6 7/5/3
f 4/3/5 1/1/7 5/214/8 8/6/6
f 6/4/4 7/5/3 11/8/9 10/7/10
f 7/5/3 8/6/6 12/9/11 11/8/9
f 8/6/6 5/214/8 9/212/12 12/9/11
f 10/7/10 11/8/9 15/216/13 14/211/14
f 11/8/9 12/9/11 16/215/15 15/216/13
f 12/9/11 9/212/12 13/213/16 16/215/15
f 3/2/2 2/210/1 17/10/17
f 4/3/5 3/2/2 17/10/17
f 1/1/7 4/3/5 17/10/17
s 2
f 151/11/18 152/12/19 21/13/20 20/14/21
f 157/15/22 158/16/23 153/17/24 22/18/25
f 159/19/26 160/20/27 59/21/28 23/22/29
f 150/23/30 151/11/18 20/14/21 25/190/31
f 20/14/21 56/194/32 60/195/33 25/190/31
f 149/27/34 150/169/30 25/24/31 27/28/35
f 148/29/36 149/27/34 27/28/35 29/30/37
f 25/24/31 60/198/33 63/31/38 30/32/39
f 27/28/35 25/24/31 30/32/39 31/33/40
f 29/30/37 27/28/35 31/33/40 32/34/41
f 30/32/39 63/31/38 65/35/42 33/36/43
f 31/33/40 30/32/39 33/36/43 34/37/44
f 32/34/41 31/33/40 34/37/44 35/38/45
f 33/36/43 65/35/42 67/39/46 36/40/47
f 34/37/44 33/36/43 36/40/47 37/41/48
f 35/38/45 34/37/44 37/41/48 38/42/49
f 22/18/25 153/17/24 154/43/50 39/44/51
f 23/22/29 59/21/28 70/45/52 40/46/53
f 39/44/51 154/43/50 155/47/54 41/48/55
f 40/46/53 70/45/52 72/49/56 42/50/57
f 41/48/55 155/47/54 156/51/58 43/52/59
f 42/50/57 72/49/56 74/53/60 44/54/61
f 43/52/59 156/51/58 45/55/62
f 44/54/61 74/53/60 75/56/63 45/55/62
f 19/57/64 131/168/65 132/59/66 46/60/67
f 51/61/68 81/62/69 84/63/70 54/64/71
f 18/65/72 19/57/64 49/66/73 48/67/74
f 19/57/64 46/60/67 50/68/75 49/66/73
f 46/60/67 76/69/76 80/70/77 50/68/75
f 51/61/68 129/71/78 52/72/79
f 26/73/80 28/74/81 53/75/82 52/72/79
f 28/74/81 61/76/83 83/77/84 53/75/82
f 47/78/85 24/79/86 51/61/68
f 79/80/87 78/81/88 48/67/74 49/66/73
f 62/82/89 61/76/83 28/74/81 148/29/36 29/30/37
f 57/196/90 56/194/32 20/14/21 21/13/20
f 157/15/22 164/188/91 57/196/90 21/13/20
f 132/59/66 133/85/92 76/69/76 46/60/67
f 82/86/93 81/62/69 51/61/68 52/72/79
f 83/77/84 82/86/93 52/72/79 53/75/82
f 64/87/94 62/82/89 29/30/37 32/34/41
f 66/88/95 64/87/94 32/34/41 35/38/45
f 68/89/96 66/88/95 35/38/45 38/42/49
f 69/193/97 58/189/98 22/18/25 39/44/51
f 71/192/99 69/193/97 39/44/51 41/48/55
f 73/165/100 71/192/99 41/48/55 43/52/59
f 75/166/63 73/165/100 43/52/59 45/55/62
f 80/70/77 79/80/87 49/66/73 50/68/75
f 78/81/88 55/94/101 18/65/72 48/67/74
f 84/63/70 77/95/102 47/78/85 54/64/71
f 85/96/103 86/97/104 124/98/105 142/99/106 143/100/107
f 161/101/108 162/102/109 144/103/110 90/104/111
f 160/20/27 161/101/108 90/104/111 59/21/28
f 86/97/104 135/105/112 136/106/113 124/98/105
f 87/107/114 92/108/115 60/26/33 56/25/32
f 91/109/116 122/110/117 123/111/118
f 93/112/119 95/113/120 139/114/121 140/115/122
f 92/197/115 97/187/123 63/31/38 60/198/33
f 94/117/124 98/118/125 97/116/123 92/171/115
f 96/119/126 99/120/127 98/118/125 94/117/124
f 97/187/123 100/121/128 65/35/42 63/31/38
f 98/118/125 101/122/129 100/186/128 97/116/123
f 99/120/127 102/123/130 101/122/129 98/118/125
f 100/121/128 103/124/131 67/39/46 65/35/42
f 101/185/129 104/184/132 103/124/131 100/121/128
f 102/123/130 105/126/133 104/125/132 101/122/129
f 144/103/110 145/127/134 107/128/135 90/104/111
f 90/104/111 107/128/135 70/45/52 59/21/28
f 145/127/134 146/129/136 109/130/137 107/128/135
f 107/128/135 109/130/137 72/49/56 70/45/52
f 146/129/136 147/131/138 111/132/139 109/130/137
f 109/130/137 111/132/139 74/53/60 72/49/56
f 147/131/138 112/133/140 111/132/139
f 111/132/139 112/133/140 75/56/63 74/53/60
f 86/97/104 113/134/141 134/135/142 135/167/112
f 118/136/143 121/137/144 84/63/70 81/62/69
f 85/96/103 115/138/145 116/139/146 86/97/104
f 86/97/104 116/139/146 117/140/147 113/134/141
f 113/134/141 117/140/147 80/70/77 76/69/76
f 91/109/116 128/178/148 122/110/117
f 93/112/119 119/142/149 120/143/150 95/113/120
f 95/113/120 120/143/150 83/77/84 61/76/83
f 114/144/151 121/137/144 118/136/143
f 79/80/87 116/139/146 115/138/145 78/81/88
f 62/82/89 96/119/126 139/114/121 95/113/120 61/76/83
f 57/83/90 88/145/152 87/107/114 56/25/32
f 164/84/91 163/146/153 88/145/152 57/83/90
f 133/85/92 134/135/142 113/134/141 76/69/76
f 82/86/93 119/142/149 118/136/143 81/62/69
f 83/77/84 120/143/150 119/142/149 82/86/93
f 64/87/94 99/120/127 96/119/126 62/82/89
f 66/88/95 102/123/130 99/120/127 64/87/94
f 68/89/96 105/126/133 102/123/130 66/88/95
f 69/90/97 106/147/154 89/148/155 58/91/98
f 71/92/99 108/149/156 106/147/154 69/90/97
f 73/93/100 110/150/157 108/149/156 71/92/99
f 75/191/63 112/133/140 110/150/157 73/93/100
f 80/70/77 117/140/147 116/139/146 79/80/87
f 78/81/88 115/138/145 85/96/103 55/94/101
f 84/63/70 121/137/144 114/144/151 77/95/102
f 123/183/118 122/179/117 93/112/119 140/115/122 141/170/158
f 124/98/105 136/106/113 123/111/118 141/151/158 142/99/106
f 122/179/117 128/141/148 119/142/149 93/112/119
f 24/175/86 126/152/159 125/177/160
f 19/57/64 127/154/161 130/155/162 131/173/65
f 24/175/86 129/176/78 51/180/68
f 114/144/151 118/136/143 91/174/116
f 91/109/116 118/182/143 128/178/148
f 119/142/149 128/141/148 118/136/143
f 47/78/85 51/61/68 54/64/71
f 24/175/86 125/177/160 129/176/78
f 52/72/79 129/71/78 125/153/160 26/73/80
f 131/173/65 130/155/162 126/152/159 24/175/86
f 132/59/66 131/58/65 24/79/86 47/78/85
f 77/95/102 133/85/92 132/59/66 47/78/85
f 77/95/102 114/144/151 134/135/142 133/85/92
f 135/172/112 134/135/142 114/144/151 91/174/116
f 136/106/113 135/105/112 91/109/116 123/111/118
s 11
f 36/40/163 67/39/164 137/156/165
s off
f 37/41/166 36/40/167 137/156/168 138/157/169
s 2
f 68/89/96 38/42/49 138/157/170
f 38/42/49 37/41/48 138/157/171
s off
f 103/124/172 104/184/173 138/157/174 137/156/175
s 11
f 67/39/164 103/124/176 137/156/165
s 2
f 104/125/132 105/126/133 138/157/177
f 105/126/133 68/89/96 138/157/170
f 140/115/122 139/114/121 96/119/126 94/117/124
f 141/170/158 140/115/122 94/117/124 92/171/115
f 142/99/106 141/151/158 92/108/115 87/107/114
f 143/100/107 142/99/106 87/107/114 88/145/152
f 162/102/109 163/146/153 89/148/155 144/103/110
f 89/148/155 106/147/154 145/127/134 144/103/110
f 106/147/154 108/149/156 146/129/136 145/127/134
f 108/149/156 110/150/157 147/131/138 146/129/136
f 110/150/157 112/133/140 147/131/138
f 26/73/80 149/27/34 148/29/36 28/74/81
f 125/153/160 126/181/159 150/169/30 149/27/34 26/73/80
f 126/152/159 130/155/162 127/154/161 151/11/18 150/23/30
f 18/65/72 152/12/19 151/11/18 127/154/161 19/57/64
f 153/17/24 158/16/23 159/19/26 23/22/29
f 154/43/50 153/17/24 23/22/29 40/46/53
f 155/47/54 154/43/50 40/46/53 42/50/57
f 156/51/58 155/47/54 42/50/57 44/54/61
f 45/55/62 156/51/58 44/54/61
f 21/13/20 152/12/19 158/16/23 157/15/22
f 159/19/26 158/16/23 152/12/19 18/65/72
f 18/65/72 55/94/101 160/20/27 159/19/26
f 85/96/103 161/101/108 160/20/27 55/94/101
f 143/100/107 162/102/109 161/101/108 85/96/103
f 88/145/152 163/146/153 162/102/109 143/100/107
f 58/189/98 164/188/91 157/15/22 22/18/25
f 58/91/98 89/148/155 163/146/153 164/84/91
s 12
f 165/207/178 166/200/179 171/158/180 170/208/181
f 166/200/179 167/159/182 172/160/183 171/158/180
f 167/159/182 168/161/184 173/162/185 172/160/183
f 168/161/184 169/206/186 174/204/187 173/162/185
f 171/158/180 172/160/183 176/164/188 175/163/189
f 172/160/183 173/162/185 177/201/190 176/164/188
f 173/162/185 174/204/187 178/205/191 177/201/190
f 175/163/189 176/164/188 180/209/192 179/203/193
f 176/164/188 177/201/190 181/202/194 180/209/192
f 167/159/182 166/200/179 182/199/195
f 168/161/184 167/159/182 182/199/195
